<?xml version="1.0" encoding="UTF-8"?>
<svg version="1.1" xmlns="http://www.w3.org/2000/svg" width="512" height="512">
<path d="M0 0 C4.11236086 3.54956478 8.069869 7.25075369 12 11 C12.85207031 11.79921875 13.70414063 12.5984375 14.58203125 13.421875 C21.4740464 20.0642581 27.27323207 27.36084118 33 35 C33.4228125 35.55671387 33.845625 36.11342773 34.28125 36.68701172 C41.77096975 46.59041068 48.02878137 57.12443287 54 68 C54.38945801 68.70882324 54.77891602 69.41764648 55.18017578 70.14794922 C61.05060246 80.96271229 61.05060246 80.96271229 60.90161133 84.0168457 C59.53834828 87.01543377 57.64977227 87.3550202 54.62109375 88.515625 C53.48494629 88.9580957 52.34879883 89.40056641 51.17822266 89.85644531 C49.94378418 90.31631836 48.7093457 90.77619141 47.4375 91.25 C46.15392403 91.73740283 44.8705603 92.22536493 43.58740234 92.71386719 C39.73512453 94.17108504 35.86923159 95.58841048 32 97 C30.41904541 97.58201172 30.41904541 97.58201172 28.80615234 98.17578125 C-22.91352106 117.00472077 -85.4136544 125.60139846 -137.19140625 102.15234375 C-165.51405267 88.73332751 -189.03101715 68.27349316 -200 38.3125 C-204.60520218 24.70476718 -205.13822467 9.36129234 -199.54296875 -4.0234375 C-197.19298197 -8.55682972 -194.46736315 -12.2659166 -191 -16 C-190.34257812 -16.74765625 -189.68515625 -17.4953125 -189.0078125 -18.265625 C-139.82701215 -71.22956384 -46.48936725 -38.92752286 0 0 Z " fill="#FEFEFE" transform="translate(203,109)"/>
<path d="M0 0 C-0.40992188 1.05058594 -0.81984375 2.10117188 -1.2421875 3.18359375 C-18.37751843 47.59676227 -8.32910107 102.21395377 10.29101562 144.76269531 C12.13742862 148.86915557 14.06143702 152.93644056 16 157 C16.32581055 157.69931641 16.65162109 158.39863281 16.98730469 159.11914062 C24.46674344 175.16311806 33.98729872 190.1491797 45 204 C45.76183594 204.96550781 46.52367187 205.93101562 47.30859375 206.92578125 C51.59990955 212.2736436 56.04154612 217.26807447 61 222 C66 227 66 227 67.8515625 228.95703125 C81.10390698 242.71537434 96.1342378 251.47212535 114 258 C99.19392283 274.24705791 67.86673395 283.94226696 46.88232422 285.18457031 C25.60154567 286.02984199 6.39119435 284.04311897 -13 275 C-13.93714844 274.58363281 -14.87429688 274.16726563 -15.83984375 273.73828125 C-51.38518131 256.35708095 -77.30791162 213.03969952 -89.95703125 177.27734375 C-96.92746826 156.54184009 -100.43627875 135.51723969 -100.375 113.6875 C-100.37412384 112.91997406 -100.37324768 112.15244812 -100.37234497 111.36166382 C-100.32916283 99.87865043 -99.92871893 88.89785159 -96 78 C-95.75862305 77.32565918 -95.51724609 76.65131836 -95.26855469 75.95654297 C-87.90581781 56.17902776 -75.03922249 38.48506263 -58 26 C-57.29246582 25.47768799 -56.58493164 24.95537598 -55.85595703 24.41723633 C-49.51571572 19.84211111 -42.93850808 16.03015559 -36 12.4375 C-34.91364258 11.87393799 -33.82728516 11.31037598 -32.70800781 10.72973633 C-10.19373494 -0.69143551 -10.19373494 -0.69143551 0 0 Z " fill="#FEFEFE" transform="translate(332,195)"/>
<path d="M0 0 C6.48681438 3.61144012 12.34146716 7.81849197 18.08374023 12.52514648 C18.6198291 12.95585449 19.15591797 13.3865625 19.70825195 13.83032227 C49.69624644 37.958094 68.27911923 72.36179583 73.08374023 110.52514648 C73.32211275 115.64726629 73.32943015 120.7730457 73.33374023 125.90014648 C73.33441498 126.61823486 73.33508972 127.33632324 73.33578491 128.07617188 C73.31072149 144.84945625 70.57601697 159.68535152 65.08374023 175.52514648 C64.7653418 176.48420898 64.44694336 177.44327148 64.11889648 178.43139648 C60.55646895 188.33892027 54.4691034 195.66903818 45.08374023 200.52514648 C35.38225363 205.07433381 22.29937105 205.27011017 12.14624023 202.02514648 C6.31986296 199.50184324 1.77395547 195.74291669 -2.91625977 191.52514648 C-3.4404248 191.05979492 -3.96458984 190.59444336 -4.50463867 190.11499023 C-6.21317227 188.59452932 -7.91086397 187.06299383 -9.60375977 185.52514648 C-10.38759033 184.81455078 -10.38759033 184.81455078 -11.18725586 184.08959961 C-43.02996818 154.57928339 -64.26087204 110.02088891 -70.91625977 67.52514648 C-71.03050293 66.80133789 -71.14474609 66.0775293 -71.26245117 65.33178711 C-73.86239939 47.998799 -77.5502738 21.72091086 -66.91625977 6.52514648 C-48.19565338 -18.39666076 -23.90269655 -12.82550865 0 0 Z " fill="#FEFEFE" transform="translate(438.916259765625,205.474853515625)"/>
<path d="M0 0 C0.6084375 0.36609375 1.216875 0.7321875 1.84375 1.109375 C10.70902821 7.40838846 14.89100504 20.45692973 16.625 30.6875 C19.22121505 55.78424549 10.1742072 78.97135375 -5.375 98.3125 C-10.4583837 104.46591671 -15.7889028 109.9644756 -22 115 C-23.49853516 116.2684375 -23.49853516 116.2684375 -25.02734375 117.5625 C-56.86518674 144 -56.86518674 144 -72 144 C-85.65301108 112.61214978 -91.10927329 76.24899555 -78.5546875 43.5625 C-69.67130169 23.20660086 -56.26854321 7.21565903 -35.4375 -1.5 C-24.74236549 -5.50372453 -9.82002257 -6.57442189 0 0 Z " fill="#FEFEFE" transform="translate(367,36)"/>
<path d="M0 0 C0.33 0 0.66 0 1 0 C1.13462646 1.39400024 1.13462646 1.39400024 1.27197266 2.81616211 C4.60591957 36.49816 11.11539371 68.34132449 26 99 C26.34256836 99.70576172 26.68513672 100.41152344 27.03808594 101.13867188 C37.23169502 121.82989328 50.70974528 140.50946066 66.4921875 157.28125 C69.10403898 160.11278993 71.55691637 163.02276547 74 166 C65.75328009 165.47246696 57.87339203 164.09791564 49.8125 162.3125 C48.58490967 162.0434082 47.35731934 161.77431641 46.0925293 161.49707031 C42.39193576 160.67774366 38.69520529 159.84327259 35 159 C33.97648437 158.76651855 32.95296875 158.53303711 31.8984375 158.29248047 C8.82061802 152.94679284 -14.04223958 146.1563591 -36.28921509 138.00595093 C-38.13475075 137.33176951 -39.98662408 136.67501699 -41.83862305 136.01879883 C-48.23828644 133.60274509 -53.82041244 131.38253668 -57 125 C-59.08248305 118.43841231 -57.56251096 113.1597149 -55 107 C-54.64824707 106.11973145 -54.29649414 105.23946289 -53.93408203 104.33251953 C-39.32583075 68.47590275 -22.41036753 31.67260969 0 0 Z " fill="#FDFDFD" transform="translate(190,312)"/>
<path d="M0 0 C-0.40992188 1.05058594 -0.81984375 2.10117188 -1.2421875 3.18359375 C-18.37751843 47.59676227 -8.32910107 102.21395377 10.29101562 144.76269531 C12.13742862 148.86915557 14.06143702 152.93644056 16 157 C16.32581055 157.69931641 16.65162109 158.39863281 16.98730469 159.11914062 C24.46674344 175.16311806 33.98729872 190.1491797 45 204 C45.76183594 204.96550781 46.52367187 205.93101562 47.30859375 206.92578125 C51.59990955 212.2736436 56.04154612 217.26807447 61 222 C66 227 66 227 67.8515625 228.95703125 C81.10390698 242.71537434 96.1342378 251.47212535 114 258 C99.19392283 274.24705791 67.86673395 283.94226696 46.88232422 285.18457031 C25.60154567 286.02984199 6.39119435 284.04311897 -13 275 C-13.93714844 274.58363281 -14.87429688 274.16726563 -15.83984375 273.73828125 C-51.38518131 256.35708095 -77.30791162 213.03969952 -89.95703125 177.27734375 C-96.92746826 156.54184009 -100.43627875 135.51723969 -100.375 113.6875 C-100.37412384 112.91997406 -100.37324768 112.15244812 -100.37234497 111.36166382 C-100.32916283 99.87865043 -99.92871893 88.89785159 -96 78 C-95.75862305 77.32565918 -95.51724609 76.65131836 -95.26855469 75.95654297 C-87.90581781 56.17902776 -75.03922249 38.48506263 -58 26 C-57.29246582 25.47768799 -56.58493164 24.95537598 -55.85595703 24.41723633 C-49.51571572 19.84211111 -42.93850808 16.03015559 -36 12.4375 C-34.91364258 11.87393799 -33.82728516 11.31037598 -32.70800781 10.72973633 C-10.19373494 -0.69143551 -10.19373494 -0.69143551 0 0 Z M-69 39 C-76.26742796 46.45905907 -81.89763945 54.96090437 -87 64 C-87.556875 64.97710937 -88.11375 65.95421875 -88.6875 66.9609375 C-96.15257696 80.88330603 -98.25525054 95.61643862 -98.3125 111.25 C-98.31511841 111.93174286 -98.31773682 112.61348572 -98.32043457 113.31588745 C-98.32801583 131.87725375 -96.01337971 150.37800979 -90 168 C-89.50230983 169.53766518 -89.00493866 171.07543363 -88.5078125 172.61328125 C-78.97169638 201.50906574 -63.99445045 226.08342353 -43 248 C-42.51772949 248.50950195 -42.03545898 249.01900391 -41.53857422 249.54394531 C-22.04315094 270.06205823 1.62040418 282.18381685 30.1328125 283.21875 C57.92656435 283.85559934 84.83029247 275.44647169 108 260 C108 259.34 108 258.68 108 258 C107.22398437 257.74347656 106.44796875 257.48695313 105.6484375 257.22265625 C80.32516637 248.24770216 57.43306709 226.50509348 42 205 C41.34837891 204.11441406 41.34837891 204.11441406 40.68359375 203.2109375 C28.85309766 187.12146282 19.41234769 170.43856405 11.07373047 152.30615234 C10.17393373 150.3735739 9.23419198 148.45966176 8.28515625 146.55078125 C3.31425834 136.46394598 0.1676187 125.75894578 -3 115 C-3.20898926 114.30036133 -3.41797852 113.60072266 -3.63330078 112.87988281 C-4.97709437 108.29711168 -6.0498873 103.67740188 -7 99 C-7.18191895 98.13068848 -7.36383789 97.26137695 -7.55126953 96.36572266 C-10.64857588 80.93679086 -11.37705198 65.80997168 -11.375 50.125 C-11.37771912 48.77103119 -11.37771912 48.77103119 -11.38049316 47.38970947 C-11.37763341 34.82254074 -11.23482752 22.28946226 -6.9375 10.3125 C-6.42509766 8.85263672 -6.42509766 8.85263672 -5.90234375 7.36328125 C-5 5 -5 5 -4 3 C-26.49777049 3 -53.67562725 24.23480973 -69 39 Z " fill="#585858" transform="translate(332,195)"/>
<path d="M0 0 C4.11236086 3.54956478 8.069869 7.25075369 12 11 C12.85207031 11.79921875 13.70414063 12.5984375 14.58203125 13.421875 C21.4740464 20.0642581 27.27323207 27.36084118 33 35 C33.4228125 35.55671387 33.845625 36.11342773 34.28125 36.68701172 C41.77096975 46.59041068 48.02878137 57.12443287 54 68 C54.38945801 68.70882324 54.77891602 69.41764648 55.18017578 70.14794922 C61.05060246 80.96271229 61.05060246 80.96271229 60.90161133 84.0168457 C59.53834828 87.01543377 57.64977227 87.3550202 54.62109375 88.515625 C53.48494629 88.9580957 52.34879883 89.40056641 51.17822266 89.85644531 C49.94378418 90.31631836 48.7093457 90.77619141 47.4375 91.25 C46.15392403 91.73740283 44.8705603 92.22536493 43.58740234 92.71386719 C39.73512453 94.17108504 35.86923159 95.58841048 32 97 C30.41904541 97.58201172 30.41904541 97.58201172 28.80615234 98.17578125 C-22.91352106 117.00472077 -85.4136544 125.60139846 -137.19140625 102.15234375 C-165.51405267 88.73332751 -189.03101715 68.27349316 -200 38.3125 C-204.60520218 24.70476718 -205.13822467 9.36129234 -199.54296875 -4.0234375 C-197.19298197 -8.55682972 -194.46736315 -12.2659166 -191 -16 C-190.34257812 -16.74765625 -189.68515625 -17.4953125 -189.0078125 -18.265625 C-139.82701215 -71.22956384 -46.48936725 -38.92752286 0 0 Z M-189.875 -14.25 C-199.42041162 -2.60459782 -202.3634131 10.3295528 -201 25 C-198.38458411 40.81454806 -190.49358391 55.07912785 -180 67 C-179.34773438 67.79535156 -178.69546875 68.59070313 -178.0234375 69.41015625 C-167.51567019 81.82663784 -154.40049488 90.69528688 -140 98 C-139.03449219 98.49113281 -138.06898438 98.98226562 -137.07421875 99.48828125 C-118.44669524 108.40189621 -97.25075139 113.07583752 -76.6171875 113.203125 C-75.84849838 113.21009399 -75.07980927 113.21706299 -74.28782654 113.22424316 C-71.81682793 113.24154474 -69.34605669 113.24796466 -66.875 113.25 C-66.02851898 113.25100708 -65.18203796 113.25201416 -64.30990601 113.25305176 C-50.65977031 113.24208352 -37.44945386 112.47202646 -24 110 C-23.23445801 109.87141602 -22.46891602 109.74283203 -21.68017578 109.61035156 C5.81329053 104.96206924 32.24496392 94.37089863 58 84 C56.5742785 78.04223643 54.16160749 73.08799391 51.1875 67.75 C50.70684082 66.88318604 50.22618164 66.01637207 49.73095703 65.12329102 C42.08471933 51.5886418 33.23626155 38.70951789 23 27 C22.32066406 26.21109375 21.64132813 25.4221875 20.94140625 24.609375 C18.67208316 22.02775974 16.35185974 19.50672952 14 17 C13.50935059 16.47535156 13.01870117 15.95070312 12.51318359 15.41015625 C-0.02596202 2.11490054 -14.08635178 -8.98910658 -30 -18 C-30.60150879 -18.34981934 -31.20301758 -18.69963867 -31.82275391 -19.06005859 C-57.64485942 -33.99514843 -84.94695872 -41.44017053 -114.6875 -41.4375 C-115.44663696 -41.43799347 -116.20577393 -41.43848694 -116.98791504 -41.43899536 C-144.48391149 -41.35215256 -170.31925407 -34.58971793 -189.875 -14.25 Z " fill="#5B5B5B" transform="translate(203,109)"/>
<path d="M0 0 C6.48681438 3.61144012 12.34146716 7.81849197 18.08374023 12.52514648 C18.6198291 12.95585449 19.15591797 13.3865625 19.70825195 13.83032227 C49.69624644 37.958094 68.27911923 72.36179583 73.08374023 110.52514648 C73.32211275 115.64726629 73.32943015 120.7730457 73.33374023 125.90014648 C73.33441498 126.61823486 73.33508972 127.33632324 73.33578491 128.07617188 C73.31072149 144.84945625 70.57601697 159.68535152 65.08374023 175.52514648 C64.7653418 176.48420898 64.44694336 177.44327148 64.11889648 178.43139648 C60.55646895 188.33892027 54.4691034 195.66903818 45.08374023 200.52514648 C35.38225363 205.07433381 22.29937105 205.27011017 12.14624023 202.02514648 C6.31986296 199.50184324 1.77395547 195.74291669 -2.91625977 191.52514648 C-3.4404248 191.05979492 -3.96458984 190.59444336 -4.50463867 190.11499023 C-6.21317227 188.59452932 -7.91086397 187.06299383 -9.60375977 185.52514648 C-10.38759033 184.81455078 -10.38759033 184.81455078 -11.18725586 184.08959961 C-43.02996818 154.57928339 -64.26087204 110.02088891 -70.91625977 67.52514648 C-71.03050293 66.80133789 -71.14474609 66.0775293 -71.26245117 65.33178711 C-73.86239939 47.998799 -77.5502738 21.72091086 -66.91625977 6.52514648 C-48.19565338 -18.39666076 -23.90269655 -12.82550865 0 0 Z M-63.63500977 6.70092773 C-68.73271349 13.95893883 -70.05881863 20.61978537 -70.18969727 29.41186523 C-70.20227066 30.17792084 -70.21484406 30.94397644 -70.22779846 31.73324585 C-70.67959349 65.97779942 -63.94313202 95.65361301 -48.91625977 126.52514648 C-48.37098633 127.64663086 -48.37098633 127.64663086 -47.81469727 128.79077148 C-35.5827769 153.60660993 -12.73776987 189.58404244 14.14624023 200.33764648 C24.5066194 203.40347297 35.42462173 202.15604301 45.08374023 197.52514648 C58.91682675 189.29776375 63.76224332 174.75167657 67.57202148 159.92749023 C70.62283728 147.14007289 71.78802098 134.98708025 71.18969727 121.86401367 C71.09839631 119.84866085 71.0534294 117.83130591 71.01733398 115.81420898 C70.35488148 97.82114407 64.81115387 80.634907 57.08374023 64.52514648 C56.34317383 62.9744043 56.34317383 62.9744043 55.58764648 61.39233398 C38.86847079 28.90124467 9.84697962 4.45028718 -24.29125977 -7.91235352 C-39.94956702 -12.74155108 -53.6488022 -5.6431344 -63.63500977 6.70092773 Z " fill="#585858" transform="translate(438.916259765625,205.474853515625)"/>
<path d="M0 0 C0.33 0 0.66 0 1 0 C1.13462646 1.39400024 1.13462646 1.39400024 1.27197266 2.81616211 C4.60591957 36.49816 11.11539371 68.34132449 26 99 C26.34256836 99.70576172 26.68513672 100.41152344 27.03808594 101.13867188 C37.23169502 121.82989328 50.70974528 140.50946066 66.4921875 157.28125 C69.10403898 160.11278993 71.55691637 163.02276547 74 166 C65.75328009 165.47246696 57.87339203 164.09791564 49.8125 162.3125 C48.58490967 162.0434082 47.35731934 161.77431641 46.0925293 161.49707031 C42.39193576 160.67774366 38.69520529 159.84327259 35 159 C33.97648437 158.76651855 32.95296875 158.53303711 31.8984375 158.29248047 C8.82061802 152.94679284 -14.04223958 146.1563591 -36.28921509 138.00595093 C-38.13475075 137.33176951 -39.98662408 136.67501699 -41.83862305 136.01879883 C-48.23828644 133.60274509 -53.82041244 131.38253668 -57 125 C-59.08248305 118.43841231 -57.56251096 113.1597149 -55 107 C-54.64824707 106.11973145 -54.29649414 105.23946289 -53.93408203 104.33251953 C-39.32583075 68.47590275 -22.41036753 31.67260969 0 0 Z M-2 8 C-3.87826805 10.69247669 -5.50478264 13.55743911 -7.1875 16.375 C-7.71851318 17.2633252 -8.24952637 18.15165039 -8.79663086 19.06689453 C-23.88126385 44.56235764 -38.34044728 71.30833588 -49 99 C-49.52550068 100.29839617 -50.05159006 101.59655416 -50.578125 102.89453125 C-51.13614077 104.30440112 -51.69343071 105.71455848 -52.25 107.125 C-52.52070313 107.78218018 -52.79140625 108.43936035 -53.0703125 109.11645508 C-55.11064304 114.37701091 -56.3870616 119.74596519 -54.07421875 125.171875 C-49.47702272 130.40361358 -44.51826745 131.94368907 -38 134 C-36.2442514 134.66265996 -34.48875613 135.32613725 -32.73925781 136.00512695 C-6.65908494 146.08756581 20.19539026 153.56405952 47.5 159.5 C48.66885742 159.75539551 49.83771484 160.01079102 51.04199219 160.27392578 C52.13157227 160.50321777 53.22115234 160.73250977 54.34375 160.96875 C55.29443359 161.16919922 56.24511719 161.36964844 57.22460938 161.57617188 C60.18896004 162.02885597 63.00585451 162.07292015 66 162 C62.7666036 157.41278316 59.32063554 153.24167087 55.4375 149.1875 C39.21555311 131.50630751 26.92450122 109.15999032 18 87 C17.62617188 86.10410156 17.25234375 85.20820313 16.8671875 84.28515625 C15.87280649 81.86967167 14.92583956 79.44256047 14 77 C13.40058594 75.42025391 13.40058594 75.42025391 12.7890625 73.80859375 C4.8713315 52.33474756 1.50529651 30.62285436 -1 8 C-1.33 8 -1.66 8 -2 8 Z " fill="#585858" transform="translate(190,312)"/>
<path d="M0 0 C0.6084375 0.36609375 1.216875 0.7321875 1.84375 1.109375 C10.70902821 7.40838846 14.89100504 20.45692973 16.625 30.6875 C19.22121505 55.78424549 10.1742072 78.97135375 -5.375 98.3125 C-10.4583837 104.46591671 -15.7889028 109.9644756 -22 115 C-23.49853516 116.2684375 -23.49853516 116.2684375 -25.02734375 117.5625 C-56.86518674 144 -56.86518674 144 -72 144 C-85.65301108 112.61214978 -91.10927329 76.24899555 -78.5546875 43.5625 C-69.67130169 23.20660086 -56.26854321 7.21565903 -35.4375 -1.5 C-24.74236549 -5.50372453 -9.82002257 -6.57442189 0 0 Z M-34 1 C-34.95648438 1.42539062 -35.91296875 1.85078125 -36.8984375 2.2890625 C-43.62293292 5.45652004 -49.41085123 9.10542506 -55 14 C-55.59167969 14.50917969 -56.18335938 15.01835938 -56.79296875 15.54296875 C-64.4802324 22.66732065 -70.89568563 32.37809319 -75 42 C-75.33515625 42.75410156 -75.6703125 43.50820312 -76.015625 44.28515625 C-86.12203437 68.08047085 -85.00311355 95.48910256 -78 120 C-77.7628125 120.86109375 -77.525625 121.7221875 -77.28125 122.609375 C-75.59549615 128.50951346 -73.74510816 134.49866989 -71 140 C-70.34 140.33 -69.68 140.66 -69 141 C-66.39807401 140.00703885 -63.94503677 138.94759224 -61.4375 137.75 C-60.68025635 137.38865967 -59.9230127 137.02731934 -59.14282227 136.6550293 C-29.47050527 122.09341566 -1.83813627 98.32751943 9.875 66.75 C10.60979558 64.50850238 11.32117714 62.25907849 12 60 C12.24621094 59.20851562 12.49242187 58.41703125 12.74609375 57.6015625 C15.77478417 45.69567601 15.58870893 30.40224644 11 19 C10.73316406 18.30132812 10.46632813 17.60265625 10.19140625 16.8828125 C6.99177117 9.57342393 1.69389186 2.84415526 -5.625 -0.5625 C-14.92230999 -3.68547932 -25.13427535 -3.05203223 -34 1 Z " fill="#585858" transform="translate(367,36)"/>
<path d="M0 0 C0 0.66 0 1.32 0 2 C-1.06476562 2.27972656 -2.12953125 2.55945313 -3.2265625 2.84765625 C-21.58826664 7.84243136 -40.6208627 16.11696465 -51 33 C-58.15789475 45.89725456 -60.3269171 58.03553779 -56.61645508 72.50683594 C-52.71845812 85.90050787 -46.21229848 97.51460076 -37 108 C-36.03900391 109.19302734 -36.03900391 109.19302734 -35.05859375 110.41015625 C-13.4047215 136.33727843 21.92775634 149.27597155 54.64364624 152.79205322 C58.22485152 153.1080924 61.78924707 153.18095615 65.3828125 153.203125 C66.15141098 153.21009399 66.92000946 153.21706299 67.7118988 153.22424316 C70.18298898 153.24154691 72.65385172 153.24796502 75.125 153.25 C75.97214569 153.25100708 76.81929138 153.25201416 77.69210815 153.25305176 C91.33936088 153.24209593 104.55263978 152.46510063 118 150 C118.98452148 149.82355957 119.96904297 149.64711914 120.98339844 149.46533203 C127.00317935 148.37717768 133.00535589 147.21872538 139 146 C138.67 146.99 138.34 147.98 138 149 C135.93725586 149.76782227 135.93725586 149.76782227 133.21484375 150.31640625 C131.71824219 150.62529785 131.71824219 150.62529785 130.19140625 150.94042969 C129.11761719 151.14571289 128.04382813 151.35099609 126.9375 151.5625 C125.2978125 151.88782715 125.2978125 151.88782715 123.625 152.21972656 C76.13313026 161.43561059 25.56021446 158.60816286 -15.84594727 131.62866211 C-37.78143483 116.77256782 -53.8472608 96.57218265 -60.6015625 70.6953125 C-62.7659142 56.05410985 -61.76398009 41.41625621 -52.75 29.1875 C-51.52584242 27.7689483 -50.2749792 26.37305453 -49 25 C-48.34257813 24.25234375 -47.68515625 23.5046875 -47.0078125 22.734375 C-36.53864257 11.45988431 -16.02116738 -0.97097984 0 0 Z " fill="#565656" transform="translate(61,68)"/>
<path d="M0 0 C0.66 0.33 1.32 0.66 2 1 C-1.25005234 4.7367353 -4.93394751 6.68115837 -9.375 8.6875 C-10.02210938 8.99494141 -10.66921875 9.30238281 -11.3359375 9.61914062 C-15.21393377 11.40567721 -18.71515715 12.50253372 -23 13 C-22 10 -22 10 -18.61328125 8.28125 C-17.18424745 7.67660755 -15.75037668 7.08330161 -14.3125 6.5 C-12.89130958 5.90772956 -11.47072652 5.31399945 -10.05078125 4.71875 C-9.3645166 4.43515625 -8.67825195 4.1515625 -7.97119141 3.859375 C-6.14386864 3.06272202 -4.37063584 2.14500569 -2.60546875 1.21875 C-1.74566406 0.8165625 -0.88585937 0.414375 0 0 Z " fill="#5D5D5D" transform="translate(430,460)"/>
<path d="M0 0 C0 0.66 0 1.32 0 2 C-2.76791945 2.86478781 -5.53865626 3.71711674 -8.3125 4.5625 C-9.09818359 4.80935547 -9.88386719 5.05621094 -10.69335938 5.31054688 C-11.45068359 5.53935547 -12.20800781 5.76816406 -12.98828125 6.00390625 C-13.68477783 6.21861572 -14.38127441 6.4333252 -15.09887695 6.65454102 C-17 7 -17 7 -20 6 C-14.13752489 1.89626743 -7.13915321 -0.26771825 0 0 Z " fill="#515151" transform="translate(61,68)"/>
<path d="M0 0 C0 3.63053243 -1.2278255 4.95750337 -3.5546875 7.63671875 C-5.49136818 9.46347972 -7.46012234 10.27432067 -10 11 C-9.09066991 9.72390677 -8.17217147 8.45434447 -7.25 7.1875 C-6.73953125 6.47980469 -6.2290625 5.77210938 -5.703125 5.04296875 C-3.97517642 2.97022309 -2.21473524 1.52624146 0 0 Z " fill="#515151" transform="translate(497,392)"/>
<path d="M0 0 C0.33 0 0.66 0 1 0 C0.67 4.29 0.34 8.58 0 13 C-0.66 12.67 -1.32 12.34 -2 12 C-2.17835515 7.45194365 -1.99785435 4.1205746 0 0 Z " fill="#4F4F4F" transform="translate(285,94)"/>
<path d="M0 0 C-1 2 -1 2 -2.625 2.625 C-5.7660575 3.12095645 -8.82601831 3.06103811 -12 3 C-11 1 -11 1 -9.00390625 0.33203125 C-8.19824219 0.16058594 -7.39257812 -0.01085937 -6.5625 -0.1875 C-5.75941406 -0.36667969 -4.95632813 -0.54585938 -4.12890625 -0.73046875 C-2 -1 -2 -1 0 0 Z " fill="#515151" transform="translate(394,476)"/>
<path d="M0 0 C0.33 0 0.66 0 1 0 C0.67 3.96 0.34 7.92 0 12 C-0.66 11.67 -1.32 11.34 -2 11 C-1.85957123 9.35369672 -1.71250671 7.70795821 -1.5625 6.0625 C-1.48128906 5.14597656 -1.40007812 4.22945313 -1.31640625 3.28515625 C-1 1 -1 1 0 0 Z " fill="#4E4E4E" transform="translate(235,280)"/>
<path d="M0 0 C0.66 0.33 1.32 0.66 2 1 C-0.52788007 3.79872437 -2.20411134 5.45773019 -6 6 C-6 5.01 -6 4.02 -6 3 C-4.03533587 1.93224776 -2.03144641 0.93446535 0 0 Z " fill="#656565" transform="translate(430,460)"/>
<path d="M0 0 C0 0.66 0 1.32 0 2 C-3.465 3.485 -3.465 3.485 -7 5 C-5.22678182 1.07358831 -4.52021524 0 0 0 Z " fill="#4F4F4F" transform="translate(312,201)"/>
</svg>
