<svg xmlns="http://www.w3.org/2000/svg" xmlns:xlink="http://www.w3.org/1999/xlink" width="2000" zoomAndPan="magnify" viewBox="0 0 1500 1499.999933" height="2000" preserveAspectRatio="xMidYMid meet" version="1.0"><defs><g/></defs><g fill="#000000" fill-opacity="1"><g transform="translate(147.499986, 1268.499612)"><g><path d="M 42.5 -885 C 63.332031 -884.164062 91.457031 -883.332031 126.875 -882.5 C 162.289062 -881.664062 197.5 -881.25 232.5 -881.25 C 272.5 -881.25 311.25 -881.664062 348.75 -882.5 C 386.25 -883.332031 412.914062 -883.75 428.75 -883.75 C 506.25 -883.75 570.625 -875.207031 621.875 -858.125 C 673.125 -841.039062 711.457031 -816.25 736.875 -783.75 C 762.289062 -751.25 775 -712.082031 775 -666.25 C 775 -637.914062 769.164062 -609.375 757.5 -580.625 C 745.832031 -551.875 726.039062 -525.207031 698.125 -500.625 C 670.207031 -476.039062 632.082031 -456.457031 583.75 -441.875 C 535.414062 -427.289062 474.582031 -420 401.25 -420 L 281.25 -420 L 281.25 -445 L 388.75 -445 C 437.914062 -445 475.207031 -454.375 500.625 -473.125 C 526.039062 -491.875 543.539062 -516.875 553.125 -548.125 C 562.707031 -579.375 567.5 -614.164062 567.5 -652.5 C 567.5 -718.332031 555.832031 -769.375 532.5 -805.625 C 509.164062 -841.875 469.164062 -860 412.5 -860 C 380 -860 358.957031 -852.914062 349.375 -838.75 C 339.789062 -824.582031 335 -795.832031 335 -752.5 L 335 -132.5 C 335 -102.5 337.289062 -80 341.875 -65 C 346.457031 -50 355.414062 -40 368.75 -35 C 382.082031 -30 402.082031 -26.664062 428.75 -25 L 428.75 0 C 406.25 -1.664062 377.914062 -2.707031 343.75 -3.125 C 309.582031 -3.539062 275 -3.75 240 -3.75 C 200 -3.75 162.289062 -3.539062 126.875 -3.125 C 91.457031 -2.707031 63.332031 -1.664062 42.5 0 L 42.5 -25 C 69.164062 -26.664062 89.164062 -30 102.5 -35 C 115.832031 -40 124.789062 -50 129.375 -65 C 133.957031 -80 136.25 -102.5 136.25 -132.5 L 136.25 -752.5 C 136.25 -783.332031 133.957031 -806.039062 129.375 -820.625 C 124.789062 -835.207031 115.625 -845.207031 101.875 -850.625 C 88.125 -856.039062 68.332031 -859.164062 42.5 -860 Z M 278.75 -441.25 C 314.582031 -440.414062 345.625 -438.75 371.875 -436.25 C 398.125 -433.75 421.25 -431.457031 441.25 -429.375 C 461.25 -427.289062 479.164062 -425.832031 495 -425 C 570.832031 -418.332031 626.875 -402.082031 663.125 -376.25 C 699.375 -350.414062 722.914062 -311.664062 733.75 -260 L 762.5 -131.25 C 770 -97.914062 777.914062 -74.582031 786.25 -61.25 C 794.582031 -47.914062 806.664062 -41.25 822.5 -41.25 C 833.332031 -42.082031 842.289062 -44.789062 849.375 -49.375 C 856.457031 -53.957031 864.164062 -60.832031 872.5 -70 L 890 -55 C 867.5 -29.164062 843.332031 -10.625 817.5 0.625 C 791.664062 11.875 760.414062 17.5 723.75 17.5 C 678.75 17.5 641.664062 7.914062 612.5 -11.25 C 583.332031 -30.414062 564.164062 -65.832031 555 -117.5 L 532.5 -242.5 C 526.664062 -277.5 519.582031 -308.125 511.25 -334.375 C 502.914062 -360.625 491.457031 -381.457031 476.875 -396.875 C 462.289062 -412.289062 442.082031 -420 416.25 -420 L 281.25 -420 Z M 278.75 -441.25 "/></g></g></g><g fill="#ddc005" fill-opacity="1"><g transform="translate(1012.507724, 1268.499612)"><g><path d="M 168.75 -175 C 201.25 -175 227.082031 -166.457031 246.25 -149.375 C 265.414062 -132.289062 275 -108.75 275 -78.75 C 275 -48.75 265.414062 -25.207031 246.25 -8.125 C 227.082031 8.957031 201.25 17.5 168.75 17.5 C 136.25 17.5 110.414062 8.957031 91.25 -8.125 C 72.082031 -25.207031 62.5 -48.75 62.5 -78.75 C 62.5 -108.75 72.082031 -132.289062 91.25 -149.375 C 110.414062 -166.457031 136.25 -175 168.75 -175 Z M 168.75 -175 "/></g></g></g></svg>